<?xml version="1.0" encoding="UTF-8" standalone="no"?>
<!DOCTYPE svg PUBLIC "-//W3C//DTD SVG 1.1//EN"
 "http://www.w3.org/Graphics/SVG/1.1/DTD/svg11.dtd">
<!-- Generated by graphviz version 2.40.1 (20161225.0304)
 -->
<!-- Title: Transaction Effects Pages: 1 -->
<svg width="435pt" height="488pt"
 viewBox="0.00 0.00 435.00 488.00" xmlns="http://www.w3.org/2000/svg" xmlns:xlink="http://www.w3.org/1999/xlink">
<g id="graph0" class="graph" transform="scale(1 1) rotate(0) translate(4 484)">
<title>Transaction Effects</title>
<polygon fill="#ffffff" stroke="transparent" points="-4,4 -4,-484 431,-484 431,4 -4,4"/>
<!-- 13194139534326 -->
<g id="node1" class="node">
<title>13194139534326</title>
<path fill="#d0d2d9" stroke="transparent" d="M265,-66C265,-66 12,-66 12,-66 6,-66 0,-60 0,-54 0,-54 0,-12 0,-12 0,-6 6,0 12,0 12,0 265,0 265,0 271,0 277,-6 277,-12 277,-12 277,-54 277,-54 277,-60 271,-66 265,-66"/>
<text text-anchor="start" x="90" y="-46.4" font-family="Times,serif" font-weight="bold" font-size="14.00" fill="#000000">13194139534326</text>
<text text-anchor="start" x="110.0312" y="-32.4" font-family="Times,serif" font-size="14.00" fill="#000000">:db.part/tx</text>
<text text-anchor="start" x="12.1136" y="-11.4" font-family="Times,serif" font-size="14.00" fill="#000000">:db/txInstant</text>
<polygon fill="#63a660" stroke="transparent" points="86.5,-6 86.5,-26 267.5,-26 267.5,-6 86.5,-6"/>
<text text-anchor="start" x="88.1413" y="-11.4" font-family="Times,serif" font-size="14.00" fill="#000000">Fri Aug 25 11:38:42 CDT 2017</text>
</g>
<!-- 17592186045423 -->
<g id="node2" class="node">
<title>17592186045423</title>
<path fill="#d0d2d9" stroke="transparent" d="M238,-233.5C238,-233.5 39,-233.5 39,-233.5 33,-233.5 27,-227.5 27,-221.5 27,-221.5 27,-96.5 27,-96.5 27,-90.5 33,-84.5 39,-84.5 39,-84.5 238,-84.5 238,-84.5 244,-84.5 250,-90.5 250,-96.5 250,-96.5 250,-221.5 250,-221.5 250,-227.5 244,-233.5 238,-233.5"/>
<text text-anchor="start" x="90" y="-213.4" font-family="Times,serif" font-weight="bold" font-size="14.00" fill="#000000">17592186045423</text>
<text text-anchor="start" x="103.8166" y="-199.4" font-family="Times,serif" font-size="14.00" fill="#000000">:db.part/user</text>
<text text-anchor="start" x="42.6746" y="-170.3" font-family="Times,serif" font-size="14.00" fill="#000000">:user/tokens</text>
<polygon fill="#73515d" stroke="transparent" points="117.5,-156 117.5,-193 240.5,-193 240.5,-156 117.5,-156"/>
<text text-anchor="start" x="146.0314" y="-178.4" font-family="Times,serif" font-size="14.00" fill="#000000">#{101 102}</text>
<text text-anchor="start" x="119.2032" y="-161.6" font-family="Times,serif" font-size="14.00" fill="#000000">was: #{101 102 100}</text>
<text text-anchor="start" x="41.1297" y="-139.4" font-family="Times,serif" font-size="14.00" fill="#000000">:user/active?</text>
<text text-anchor="start" x="168.1171" y="-139.4" font-family="Times,serif" font-size="14.00" fill="#000000">true</text>
<text text-anchor="start" x="45.7896" y="-117.4" font-family="Times,serif" font-size="14.00" fill="#000000">:user/name</text>
<text text-anchor="start" x="121.8261" y="-117.4" font-family="Times,serif" font-size="14.00" fill="#000000">alice@example.com</text>
<text text-anchor="start" x="39.1823" y="-95.4" font-family="Times,serif" font-size="14.00" fill="#000000">:user/account</text>
<polygon fill="#d0d2d9" stroke="transparent" points="117.5,-90 117.5,-110 240.5,-110 240.5,-90 117.5,-90"/>
<text text-anchor="start" x="119.7814" y="-95.4" font-family="Times,serif" font-size="14.00" fill="#000000">#{17592186045426}</text>
</g>
<!-- 17592186045425 -->
<g id="node3" class="node">
<title>17592186045425</title>
<path fill="#d0d2d9" stroke="transparent" d="M187.5,-480C187.5,-480 89.5,-480 89.5,-480 83.5,-480 77.5,-474 77.5,-468 77.5,-468 77.5,-448 77.5,-448 77.5,-442 83.5,-436 89.5,-436 89.5,-436 187.5,-436 187.5,-436 193.5,-436 199.5,-442 199.5,-448 199.5,-448 199.5,-468 199.5,-468 199.5,-474 193.5,-480 187.5,-480"/>
<text text-anchor="start" x="89.5" y="-460.4" font-family="Times,serif" font-weight="bold" font-size="14.00" fill="#000000">17592186045425</text>
<text text-anchor="start" x="103.3166" y="-446.4" font-family="Times,serif" font-size="14.00" fill="#000000">:db.part/user</text>
</g>
<!-- 17592186045427 -->
<g id="node5" class="node">
<title>17592186045427</title>
<path fill="#d0d2d9" stroke="transparent" d="M415,-385C415,-385 325,-385 325,-385 319,-385 313,-379 313,-373 313,-373 313,-361 313,-361 313,-355 319,-349 325,-349 325,-349 415,-349 415,-349 421,-349 427,-355 427,-361 427,-361 427,-373 427,-373 427,-379 421,-385 415,-385"/>
<text text-anchor="middle" x="370" y="-362.8" font-family="Times,serif" font-size="14.00" fill="#000000">17592186045427</text>
</g>
<!-- 17592186045425&#45;&gt;17592186045427 -->
<g id="edge1" class="edge">
<title>17592186045425:68&#45;&gt;17592186045427:id</title>
<path fill="none" stroke="#000000" d="M199.5803,-449.1366C224.2324,-444.3365 252.5677,-437.2315 277,-427 298.733,-417.8989 320.984,-403.75 338.2702,-391.4774"/>
<polygon fill="#000000" stroke="#000000" points="340.7902,-393.9732 346.8282,-385.2673 336.6789,-388.3077 340.7902,-393.9732"/>
</g>
<!-- 17592186045431 -->
<g id="node4" class="node">
<title>17592186045431</title>
<path fill="#d0d2d9" stroke="transparent" d="M253.5,-418C253.5,-418 23.5,-418 23.5,-418 17.5,-418 11.5,-412 11.5,-406 11.5,-406 11.5,-264 11.5,-264 11.5,-258 17.5,-252 23.5,-252 23.5,-252 253.5,-252 253.5,-252 259.5,-252 265.5,-258 265.5,-264 265.5,-264 265.5,-406 265.5,-406 265.5,-412 259.5,-418 253.5,-418"/>
<text text-anchor="start" x="89.5" y="-398.4" font-family="Times,serif" font-weight="bold" font-size="14.00" fill="#000000">17592186045431</text>
<text text-anchor="start" x="103.3166" y="-384.4" font-family="Times,serif" font-size="14.00" fill="#000000">:db.part/user</text>
<text text-anchor="start" x="26.6746" y="-355.3" font-family="Times,serif" font-size="14.00" fill="#000000">:user/tokens</text>
<polygon fill="#63a660" stroke="transparent" points="101.5,-341 101.5,-378 255.5,-378 255.5,-341 101.5,-341"/>
<text text-anchor="start" x="145.5314" y="-363.4" font-family="Times,serif" font-size="14.00" fill="#000000">#{101 100}</text>
<text text-anchor="start" x="141.7626" y="-346.6" font-family="Times,serif" font-size="14.00" fill="#000000">asserted: 100</text>
<text text-anchor="start" x="25.1297" y="-324.4" font-family="Times,serif" font-size="14.00" fill="#000000">:user/active?</text>
<polygon fill="#63a660" stroke="transparent" points="101.5,-319 101.5,-339 255.5,-339 255.5,-319 101.5,-319"/>
<text text-anchor="start" x="167.6171" y="-324.4" font-family="Times,serif" font-size="14.00" fill="#000000">true</text>
<text text-anchor="start" x="29.7896" y="-302.4" font-family="Times,serif" font-size="14.00" fill="#000000">:user/name</text>
<polygon fill="#63a660" stroke="transparent" points="101.5,-297 101.5,-317 255.5,-317 255.5,-297 101.5,-297"/>
<text text-anchor="start" x="120.1655" y="-302.4" font-family="Times,serif" font-size="14.00" fill="#000000">mallory@attacker.zz</text>
<text text-anchor="start" x="23.1823" y="-272.3" font-family="Times,serif" font-size="14.00" fill="#000000">:user/account</text>
<polygon fill="#63a660" stroke="transparent" points="101.5,-258 101.5,-295 255.5,-295 255.5,-258 101.5,-258"/>
<text text-anchor="start" x="119.2814" y="-280.4" font-family="Times,serif" font-size="14.00" fill="#000000">#{17592186045427}</text>
<text text-anchor="start" x="103.2626" y="-263.6" font-family="Times,serif" font-size="14.00" fill="#000000">asserted: 17592186045427</text>
</g>
<!-- 17592186045431&#45;&gt;17592186045427 -->
<g id="edge2" class="edge">
<title>17592186045431:68&#45;&gt;17592186045427:id</title>
<path fill="none" stroke="#000000" d="M255.5,-276C297.2003,-276 332.519,-313.4497 352.4828,-340.3004"/>
<polygon fill="#000000" stroke="#000000" points="349.7466,-342.491 358.4136,-348.5848 355.4384,-338.4163 349.7466,-342.491"/>
</g>
</g>
</svg>
