<?xml version="1.0" encoding="UTF-8" standalone="no"?>
<!DOCTYPE svg PUBLIC "-//W3C//DTD SVG 1.1//EN"
 "http://www.w3.org/Graphics/SVG/1.1/DTD/svg11.dtd">
<!-- Generated by graphviz version 2.40.1 (20161225.0304)
 -->
<!-- Title: Transaction Effects Pages: 1 -->
<svg width="375pt" height="1506pt"
 viewBox="0.00 0.00 375.00 1506.00" xmlns="http://www.w3.org/2000/svg" xmlns:xlink="http://www.w3.org/1999/xlink">
<g id="graph0" class="graph" transform="scale(1 1) rotate(0) translate(4 1502)">
<title>Transaction Effects</title>
<polygon fill="#ffffff" stroke="transparent" points="-4,4 -4,-1502 371,-1502 371,4 -4,4"/>
<!-- 13194139534312 -->
<g id="node1" class="node">
<title>13194139534312</title>
<path fill="#d0d2d9" stroke="transparent" d="M265,-66C265,-66 12,-66 12,-66 6,-66 0,-60 0,-54 0,-54 0,-12 0,-12 0,-6 6,0 12,0 12,0 265,0 265,0 271,0 277,-6 277,-12 277,-12 277,-54 277,-54 277,-60 271,-66 265,-66"/>
<text text-anchor="start" x="90" y="-46.4" font-family="Times,serif" font-weight="bold" font-size="14.00" fill="#000000">13194139534312</text>
<text text-anchor="start" x="110.0312" y="-32.4" font-family="Times,serif" font-size="14.00" fill="#000000">:db.part/tx</text>
<text text-anchor="start" x="12.1136" y="-11.4" font-family="Times,serif" font-size="14.00" fill="#000000">:db/txInstant</text>
<polygon fill="#63a660" stroke="transparent" points="86.5,-6 86.5,-26 267.5,-26 267.5,-6 86.5,-6"/>
<text text-anchor="start" x="88.1413" y="-11.4" font-family="Times,serif" font-size="14.00" fill="#000000">Fri Aug 25 11:37:35 CDT 2017</text>
</g>
<!-- 63 -->
<g id="node2" class="node">
<title>63</title>
<path fill="#d0d2d9" stroke="transparent" d="M235,-1077.5C235,-1077.5 42,-1077.5 42,-1077.5 36,-1077.5 30,-1071.5 30,-1065.5 30,-1065.5 30,-906.5 30,-906.5 30,-900.5 36,-894.5 42,-894.5 42,-894.5 235,-894.5 235,-894.5 241,-894.5 247,-900.5 247,-906.5 247,-906.5 247,-1065.5 247,-1065.5 247,-1071.5 241,-1077.5 235,-1077.5"/>
<text text-anchor="start" x="132" y="-1057.4" font-family="Times,serif" font-weight="bold" font-size="14.00" fill="#000000">63</text>
<text text-anchor="start" x="108.4765" y="-1043.4" font-family="Times,serif" font-size="14.00" fill="#000000">:db.part/db</text>
<text text-anchor="start" x="42.5659" y="-1014.3" font-family="Times,serif" font-size="14.00" fill="#000000">:db/valueType</text>
<polygon fill="#63a660" stroke="transparent" points="127.5,-1000 127.5,-1037 237.5,-1037 237.5,-1000 127.5,-1000"/>
<text text-anchor="start" x="141.8636" y="-1022.4" font-family="Times,serif" font-size="14.00" fill="#000000">:db.type/string</text>
<text text-anchor="start" x="149.2626" y="-1005.6" font-family="Times,serif" font-size="14.00" fill="#000000">asserted: 23</text>
<text text-anchor="start" x="42.176" y="-975.3" font-family="Times,serif" font-size="14.00" fill="#000000">:db/cardinality</text>
<polygon fill="#63a660" stroke="transparent" points="127.5,-961 127.5,-998 237.5,-998 237.5,-961 127.5,-961"/>
<text text-anchor="start" x="129.8187" y="-983.4" font-family="Times,serif" font-size="14.00" fill="#000000">:db.cardinality/one</text>
<text text-anchor="start" x="149.2626" y="-966.6" font-family="Times,serif" font-size="14.00" fill="#000000">asserted: 35</text>
<text text-anchor="start" x="58.1115" y="-944.4" font-family="Times,serif" font-size="14.00" fill="#000000">:db/ident</text>
<polygon fill="#63a660" stroke="transparent" points="127.5,-939 127.5,-959 237.5,-959 237.5,-939 127.5,-939"/>
<text text-anchor="start" x="151.7896" y="-944.4" font-family="Times,serif" font-size="14.00" fill="#000000">:user/name</text>
<text text-anchor="start" x="53.0568" y="-914.3" font-family="Times,serif" font-size="14.00" fill="#000000">:db/unique</text>
<polygon fill="#63a660" stroke="transparent" points="127.5,-900 127.5,-937 237.5,-937 237.5,-900 127.5,-900"/>
<text text-anchor="start" x="129.4183" y="-922.4" font-family="Times,serif" font-size="14.00" fill="#000000">:db.unique/identity</text>
<text text-anchor="start" x="149.2626" y="-905.6" font-family="Times,serif" font-size="14.00" fill="#000000">asserted: 38</text>
</g>
<!-- 23 -->
<g id="node13" class="node">
<title>23</title>
<path fill="#d0d2d9" stroke="transparent" d="M355,-1037C355,-1037 325,-1037 325,-1037 319,-1037 313,-1031 313,-1025 313,-1025 313,-1013 313,-1013 313,-1007 319,-1001 325,-1001 325,-1001 355,-1001 355,-1001 361,-1001 367,-1007 367,-1013 367,-1013 367,-1025 367,-1025 367,-1031 361,-1037 355,-1037"/>
<text text-anchor="middle" x="340" y="-1014.8" font-family="Times,serif" font-size="14.00" fill="#000000">23</text>
</g>
<!-- 63&#45;&gt;23 -->
<g id="edge1" class="edge">
<title>63:40&#45;&gt;23:id</title>
<path fill="none" stroke="#000000" d="M237.5,-1019C258.9709,-1019 282.9718,-1019 302.3483,-1019"/>
<polygon fill="#000000" stroke="#000000" points="302.5919,-1022.5001 312.5918,-1019 302.5918,-1015.5001 302.5919,-1022.5001"/>
</g>
<!-- 35 -->
<g id="node14" class="node">
<title>35</title>
<path fill="#d0d2d9" stroke="transparent" d="M355,-708C355,-708 325,-708 325,-708 319,-708 313,-702 313,-696 313,-696 313,-684 313,-684 313,-678 319,-672 325,-672 325,-672 355,-672 355,-672 361,-672 367,-678 367,-684 367,-684 367,-696 367,-696 367,-702 361,-708 355,-708"/>
<text text-anchor="middle" x="340" y="-685.8" font-family="Times,serif" font-size="14.00" fill="#000000">35</text>
</g>
<!-- 63&#45;&gt;35 -->
<g id="edge2" class="edge">
<title>63:41&#45;&gt;35:id</title>
<path fill="none" stroke="#000000" d="M237.5,-979C251.2633,-979 309.693,-790.3586 331.6312,-717.891"/>
<polygon fill="#000000" stroke="#000000" points="335.0541,-718.6631 334.5936,-708.0782 328.3528,-716.64 335.0541,-718.6631"/>
</g>
<!-- 38 -->
<g id="node15" class="node">
<title>38</title>
<path fill="#d0d2d9" stroke="transparent" d="M355,-936C355,-936 325,-936 325,-936 319,-936 313,-930 313,-924 313,-924 313,-912 313,-912 313,-906 319,-900 325,-900 325,-900 355,-900 355,-900 361,-900 367,-906 367,-912 367,-912 367,-924 367,-924 367,-930 361,-936 355,-936"/>
<text text-anchor="middle" x="340" y="-913.8" font-family="Times,serif" font-size="14.00" fill="#000000">38</text>
</g>
<!-- 63&#45;&gt;38 -->
<g id="edge3" class="edge">
<title>63:42&#45;&gt;38:id</title>
<path fill="none" stroke="#000000" d="M237.5,-918C258.9709,-918 282.9718,-918 302.3483,-918"/>
<polygon fill="#000000" stroke="#000000" points="302.5919,-921.5001 312.5918,-918 302.5918,-914.5001 302.5919,-921.5001"/>
</g>
<!-- 64 -->
<g id="node3" class="node">
<title>64</title>
<path fill="#d0d2d9" stroke="transparent" d="M240,-390C240,-390 37,-390 37,-390 31,-390 25,-384 25,-378 25,-378 25,-258 25,-258 25,-252 31,-246 37,-246 37,-246 240,-246 240,-246 246,-246 252,-252 252,-258 252,-258 252,-378 252,-378 252,-384 246,-390 240,-390"/>
<text text-anchor="start" x="132" y="-370.4" font-family="Times,serif" font-weight="bold" font-size="14.00" fill="#000000">64</text>
<text text-anchor="start" x="108.4765" y="-356.4" font-family="Times,serif" font-size="14.00" fill="#000000">:db.part/db</text>
<text text-anchor="start" x="37.5659" y="-327.3" font-family="Times,serif" font-size="14.00" fill="#000000">:db/valueType</text>
<polygon fill="#63a660" stroke="transparent" points="122.5,-313 122.5,-350 242.5,-350 242.5,-313 122.5,-313"/>
<text text-anchor="start" x="145.3615" y="-335.4" font-family="Times,serif" font-size="14.00" fill="#000000">:db.type/long</text>
<text text-anchor="start" x="149.2626" y="-318.6" font-family="Times,serif" font-size="14.00" fill="#000000">asserted: 22</text>
<text text-anchor="start" x="37.176" y="-288.3" font-family="Times,serif" font-size="14.00" fill="#000000">:db/cardinality</text>
<polygon fill="#63a660" stroke="transparent" points="122.5,-274 122.5,-311 242.5,-311 242.5,-274 122.5,-274"/>
<text text-anchor="start" x="124.3734" y="-296.4" font-family="Times,serif" font-size="14.00" fill="#000000">:db.cardinality/many</text>
<text text-anchor="start" x="149.2626" y="-279.6" font-family="Times,serif" font-size="14.00" fill="#000000">asserted: 36</text>
<text text-anchor="start" x="53.1115" y="-257.4" font-family="Times,serif" font-size="14.00" fill="#000000">:db/ident</text>
<polygon fill="#63a660" stroke="transparent" points="122.5,-252 122.5,-272 242.5,-272 242.5,-252 122.5,-252"/>
<text text-anchor="start" x="148.6746" y="-257.4" font-family="Times,serif" font-size="14.00" fill="#000000">:user/tokens</text>
</g>
<!-- 22 -->
<g id="node16" class="node">
<title>22</title>
<path fill="#d0d2d9" stroke="transparent" d="M355,-419C355,-419 325,-419 325,-419 319,-419 313,-413 313,-407 313,-407 313,-395 313,-395 313,-389 319,-383 325,-383 325,-383 355,-383 355,-383 361,-383 367,-389 367,-395 367,-395 367,-407 367,-407 367,-413 361,-419 355,-419"/>
<text text-anchor="middle" x="340" y="-396.8" font-family="Times,serif" font-size="14.00" fill="#000000">22</text>
</g>
<!-- 64&#45;&gt;22 -->
<g id="edge4" class="edge">
<title>64:40&#45;&gt;22:id</title>
<path fill="none" stroke="#000000" d="M242.5,-332C273.6218,-332 301.7626,-355.714 319.7216,-375.3376"/>
<polygon fill="#000000" stroke="#000000" points="317.0973,-377.6535 326.3184,-382.8711 322.3636,-373.042 317.0973,-377.6535"/>
</g>
<!-- 36 -->
<g id="node17" class="node">
<title>36</title>
<path fill="#d0d2d9" stroke="transparent" d="M355,-241C355,-241 325,-241 325,-241 319,-241 313,-235 313,-229 313,-229 313,-217 313,-217 313,-211 319,-205 325,-205 325,-205 355,-205 355,-205 361,-205 367,-211 367,-217 367,-217 367,-229 367,-229 367,-235 361,-241 355,-241"/>
<text text-anchor="middle" x="340" y="-218.8" font-family="Times,serif" font-size="14.00" fill="#000000">36</text>
</g>
<!-- 64&#45;&gt;36 -->
<g id="edge5" class="edge">
<title>64:41&#45;&gt;36:id</title>
<path fill="none" stroke="#000000" d="M242.5,-292C273.6218,-292 301.7626,-268.286 319.7216,-248.6624"/>
<polygon fill="#000000" stroke="#000000" points="322.3636,-250.958 326.3184,-241.1289 317.0973,-246.3465 322.3636,-250.958"/>
</g>
<!-- 65 -->
<g id="node4" class="node">
<title>65</title>
<path fill="#d0d2d9" stroke="transparent" d="M234.5,-876C234.5,-876 42.5,-876 42.5,-876 36.5,-876 30.5,-870 30.5,-864 30.5,-864 30.5,-744 30.5,-744 30.5,-738 36.5,-732 42.5,-732 42.5,-732 234.5,-732 234.5,-732 240.5,-732 246.5,-738 246.5,-744 246.5,-744 246.5,-864 246.5,-864 246.5,-870 240.5,-876 234.5,-876"/>
<text text-anchor="start" x="131.5" y="-856.4" font-family="Times,serif" font-weight="bold" font-size="14.00" fill="#000000">65</text>
<text text-anchor="start" x="107.9765" y="-842.4" font-family="Times,serif" font-size="14.00" fill="#000000">:db.part/db</text>
<text text-anchor="start" x="42.5659" y="-813.3" font-family="Times,serif" font-size="14.00" fill="#000000">:db/valueType</text>
<polygon fill="#63a660" stroke="transparent" points="127.5,-799 127.5,-836 236.5,-836 236.5,-799 127.5,-799"/>
<text text-anchor="start" x="135.1469" y="-821.4" font-family="Times,serif" font-size="14.00" fill="#000000">:db.type/boolean</text>
<text text-anchor="start" x="148.7626" y="-804.6" font-family="Times,serif" font-size="14.00" fill="#000000">asserted: 24</text>
<text text-anchor="start" x="42.176" y="-774.3" font-family="Times,serif" font-size="14.00" fill="#000000">:db/cardinality</text>
<polygon fill="#63a660" stroke="transparent" points="127.5,-760 127.5,-797 236.5,-797 236.5,-760 127.5,-760"/>
<text text-anchor="start" x="129.3187" y="-782.4" font-family="Times,serif" font-size="14.00" fill="#000000">:db.cardinality/one</text>
<text text-anchor="start" x="148.7626" y="-765.6" font-family="Times,serif" font-size="14.00" fill="#000000">asserted: 35</text>
<text text-anchor="start" x="58.1115" y="-743.4" font-family="Times,serif" font-size="14.00" fill="#000000">:db/ident</text>
<polygon fill="#63a660" stroke="transparent" points="127.5,-738 127.5,-758 236.5,-758 236.5,-738 127.5,-738"/>
<text text-anchor="start" x="146.6297" y="-743.4" font-family="Times,serif" font-size="14.00" fill="#000000">:user/active?</text>
</g>
<!-- 65&#45;&gt;35 -->
<g id="edge7" class="edge">
<title>65:41&#45;&gt;35:id</title>
<path fill="none" stroke="#000000" d="M236.5,-778C274.8544,-778 306.2448,-742.4912 324.0422,-716.5857"/>
<polygon fill="#000000" stroke="#000000" points="326.9661,-718.5093 329.5471,-708.2337 321.1215,-714.657 326.9661,-718.5093"/>
</g>
<!-- 24 -->
<g id="node18" class="node">
<title>24</title>
<path fill="#d0d2d9" stroke="transparent" d="M355,-836C355,-836 325,-836 325,-836 319,-836 313,-830 313,-824 313,-824 313,-812 313,-812 313,-806 319,-800 325,-800 325,-800 355,-800 355,-800 361,-800 367,-806 367,-812 367,-812 367,-824 367,-824 367,-830 361,-836 355,-836"/>
<text text-anchor="middle" x="340" y="-813.8" font-family="Times,serif" font-size="14.00" fill="#000000">24</text>
</g>
<!-- 65&#45;&gt;24 -->
<g id="edge6" class="edge">
<title>65:40&#45;&gt;24:id</title>
<path fill="none" stroke="#000000" d="M236.5,-818C258.4331,-818 282.9807,-818 302.6631,-818"/>
<polygon fill="#000000" stroke="#000000" points="302.7605,-821.5001 312.7605,-818 302.7605,-814.5001 302.7605,-821.5001"/>
</g>
<!-- 66 -->
<g id="node5" class="node">
<title>66</title>
<path fill="#d0d2d9" stroke="transparent" d="M234.5,-714C234.5,-714 42.5,-714 42.5,-714 36.5,-714 30.5,-708 30.5,-702 30.5,-702 30.5,-582 30.5,-582 30.5,-576 36.5,-570 42.5,-570 42.5,-570 234.5,-570 234.5,-570 240.5,-570 246.5,-576 246.5,-582 246.5,-582 246.5,-702 246.5,-702 246.5,-708 240.5,-714 234.5,-714"/>
<text text-anchor="start" x="131.5" y="-694.4" font-family="Times,serif" font-weight="bold" font-size="14.00" fill="#000000">66</text>
<text text-anchor="start" x="107.9765" y="-680.4" font-family="Times,serif" font-size="14.00" fill="#000000">:db.part/db</text>
<text text-anchor="start" x="42.5659" y="-651.3" font-family="Times,serif" font-size="14.00" fill="#000000">:db/valueType</text>
<polygon fill="#63a660" stroke="transparent" points="127.5,-637 127.5,-674 236.5,-674 236.5,-637 127.5,-637"/>
<text text-anchor="start" x="144.8615" y="-659.4" font-family="Times,serif" font-size="14.00" fill="#000000">:db.type/long</text>
<text text-anchor="start" x="148.7626" y="-642.6" font-family="Times,serif" font-size="14.00" fill="#000000">asserted: 22</text>
<text text-anchor="start" x="42.176" y="-612.3" font-family="Times,serif" font-size="14.00" fill="#000000">:db/cardinality</text>
<polygon fill="#63a660" stroke="transparent" points="127.5,-598 127.5,-635 236.5,-635 236.5,-598 127.5,-598"/>
<text text-anchor="start" x="129.3187" y="-620.4" font-family="Times,serif" font-size="14.00" fill="#000000">:db.cardinality/one</text>
<text text-anchor="start" x="148.7626" y="-603.6" font-family="Times,serif" font-size="14.00" fill="#000000">asserted: 35</text>
<text text-anchor="start" x="58.1115" y="-581.4" font-family="Times,serif" font-size="14.00" fill="#000000">:db/ident</text>
<polygon fill="#63a660" stroke="transparent" points="127.5,-576 127.5,-596 236.5,-596 236.5,-576 127.5,-576"/>
<text text-anchor="start" x="150.8969" y="-581.4" font-family="Times,serif" font-size="14.00" fill="#000000">:account/id</text>
</g>
<!-- 66&#45;&gt;35 -->
<g id="edge9" class="edge">
<title>66:41&#45;&gt;35:id</title>
<path fill="none" stroke="#000000" d="M236.5,-616C270.3852,-616 300.8246,-642.5715 319.7806,-663.8697"/>
<polygon fill="#000000" stroke="#000000" points="317.314,-666.3712 326.4667,-671.7079 322.6397,-661.8283 317.314,-666.3712"/>
</g>
<!-- 66&#45;&gt;22 -->
<g id="edge8" class="edge">
<title>66:40&#45;&gt;22:id</title>
<path fill="none" stroke="#000000" d="M236.5,-656C284.927,-656 321.5577,-496.1063 334.7087,-429.5441"/>
<polygon fill="#000000" stroke="#000000" points="338.2198,-429.822 336.6847,-419.339 331.3474,-428.4912 338.2198,-429.822"/>
</g>
<!-- 67 -->
<g id="node6" class="node">
<title>67</title>
<path fill="#d0d2d9" stroke="transparent" d="M234.5,-552C234.5,-552 42.5,-552 42.5,-552 36.5,-552 30.5,-546 30.5,-540 30.5,-540 30.5,-420 30.5,-420 30.5,-414 36.5,-408 42.5,-408 42.5,-408 234.5,-408 234.5,-408 240.5,-408 246.5,-414 246.5,-420 246.5,-420 246.5,-540 246.5,-540 246.5,-546 240.5,-552 234.5,-552"/>
<text text-anchor="start" x="131.5" y="-532.4" font-family="Times,serif" font-weight="bold" font-size="14.00" fill="#000000">67</text>
<text text-anchor="start" x="107.9765" y="-518.4" font-family="Times,serif" font-size="14.00" fill="#000000">:db.part/db</text>
<text text-anchor="start" x="42.5659" y="-489.3" font-family="Times,serif" font-size="14.00" fill="#000000">:db/valueType</text>
<polygon fill="#63a660" stroke="transparent" points="127.5,-475 127.5,-512 236.5,-512 236.5,-475 127.5,-475"/>
<text text-anchor="start" x="149.5389" y="-497.4" font-family="Times,serif" font-size="14.00" fill="#000000">:db.type/ref</text>
<text text-anchor="start" x="148.7626" y="-480.6" font-family="Times,serif" font-size="14.00" fill="#000000">asserted: 20</text>
<text text-anchor="start" x="42.176" y="-450.3" font-family="Times,serif" font-size="14.00" fill="#000000">:db/cardinality</text>
<polygon fill="#63a660" stroke="transparent" points="127.5,-436 127.5,-473 236.5,-473 236.5,-436 127.5,-436"/>
<text text-anchor="start" x="129.3187" y="-458.4" font-family="Times,serif" font-size="14.00" fill="#000000">:db.cardinality/one</text>
<text text-anchor="start" x="148.7626" y="-441.6" font-family="Times,serif" font-size="14.00" fill="#000000">asserted: 35</text>
<text text-anchor="start" x="58.1115" y="-419.4" font-family="Times,serif" font-size="14.00" fill="#000000">:db/ident</text>
<polygon fill="#63a660" stroke="transparent" points="127.5,-414 127.5,-434 236.5,-434 236.5,-414 127.5,-414"/>
<text text-anchor="start" x="147.014" y="-419.4" font-family="Times,serif" font-size="14.00" fill="#000000">:account/tier</text>
</g>
<!-- 67&#45;&gt;35 -->
<g id="edge11" class="edge">
<title>67:41&#45;&gt;35:id</title>
<path fill="none" stroke="#000000" d="M236.5,-454C281.4358,-454 319.5787,-599.3118 333.921,-661.8879"/>
<polygon fill="#000000" stroke="#000000" points="330.5579,-662.8857 336.1679,-671.8733 337.3872,-661.3489 330.5579,-662.8857"/>
</g>
<!-- 20 -->
<g id="node19" class="node">
<title>20</title>
<path fill="#d0d2d9" stroke="transparent" d="M355,-342C355,-342 325,-342 325,-342 319,-342 313,-336 313,-330 313,-330 313,-318 313,-318 313,-312 319,-306 325,-306 325,-306 355,-306 355,-306 361,-306 367,-312 367,-318 367,-318 367,-330 367,-330 367,-336 361,-342 355,-342"/>
<text text-anchor="middle" x="340" y="-319.8" font-family="Times,serif" font-size="14.00" fill="#000000">20</text>
</g>
<!-- 67&#45;&gt;20 -->
<g id="edge10" class="edge">
<title>67:40&#45;&gt;20:id</title>
<path fill="none" stroke="#000000" d="M236.5,-494C244.7605,-494 298.4434,-399.1206 325.071,-351.125"/>
<polygon fill="#000000" stroke="#000000" points="328.2343,-352.6372 330.0143,-342.193 322.1097,-349.2476 328.2343,-352.6372"/>
</g>
<!-- 68 -->
<g id="node7" class="node">
<title>68</title>
<path fill="#d0d2d9" stroke="transparent" d="M240,-228C240,-228 37,-228 37,-228 31,-228 25,-222 25,-216 25,-216 25,-96 25,-96 25,-90 31,-84 37,-84 37,-84 240,-84 240,-84 246,-84 252,-90 252,-96 252,-96 252,-216 252,-216 252,-222 246,-228 240,-228"/>
<text text-anchor="start" x="132" y="-208.4" font-family="Times,serif" font-weight="bold" font-size="14.00" fill="#000000">68</text>
<text text-anchor="start" x="108.4765" y="-194.4" font-family="Times,serif" font-size="14.00" fill="#000000">:db.part/db</text>
<text text-anchor="start" x="37.5659" y="-165.3" font-family="Times,serif" font-size="14.00" fill="#000000">:db/valueType</text>
<polygon fill="#63a660" stroke="transparent" points="122.5,-151 122.5,-188 242.5,-188 242.5,-151 122.5,-151"/>
<text text-anchor="start" x="150.0389" y="-173.4" font-family="Times,serif" font-size="14.00" fill="#000000">:db.type/ref</text>
<text text-anchor="start" x="149.2626" y="-156.6" font-family="Times,serif" font-size="14.00" fill="#000000">asserted: 20</text>
<text text-anchor="start" x="37.176" y="-126.3" font-family="Times,serif" font-size="14.00" fill="#000000">:db/cardinality</text>
<polygon fill="#63a660" stroke="transparent" points="122.5,-112 122.5,-149 242.5,-149 242.5,-112 122.5,-112"/>
<text text-anchor="start" x="124.3734" y="-134.4" font-family="Times,serif" font-size="14.00" fill="#000000">:db.cardinality/many</text>
<text text-anchor="start" x="149.2626" y="-117.6" font-family="Times,serif" font-size="14.00" fill="#000000">asserted: 36</text>
<text text-anchor="start" x="53.1115" y="-95.4" font-family="Times,serif" font-size="14.00" fill="#000000">:db/ident</text>
<polygon fill="#63a660" stroke="transparent" points="122.5,-90 122.5,-110 242.5,-110 242.5,-90 122.5,-90"/>
<text text-anchor="start" x="145.1823" y="-95.4" font-family="Times,serif" font-size="14.00" fill="#000000">:user/account</text>
</g>
<!-- 68&#45;&gt;36 -->
<g id="edge13" class="edge">
<title>68:41&#45;&gt;36:id</title>
<path fill="none" stroke="#000000" d="M242.5,-130C280.9607,-130 310.2356,-168.3602 326.2596,-195.8075"/>
<polygon fill="#000000" stroke="#000000" points="323.2511,-197.5988 331.1799,-204.6262 329.3639,-194.1881 323.2511,-197.5988"/>
</g>
<!-- 68&#45;&gt;20 -->
<g id="edge12" class="edge">
<title>68:40&#45;&gt;20:id</title>
<path fill="none" stroke="#000000" d="M242.5,-170C272.0662,-170 310.4193,-252.0553 328.9777,-296.3734"/>
<polygon fill="#000000" stroke="#000000" points="325.7879,-297.8193 332.8364,-305.7294 332.2592,-295.1503 325.7879,-297.8193"/>
</g>
<!-- 17592186045417 -->
<g id="node8" class="node">
<title>17592186045417</title>
<path fill="#d0d2d9" stroke="transparent" d="M213.5,-1162C213.5,-1162 63.5,-1162 63.5,-1162 57.5,-1162 51.5,-1156 51.5,-1150 51.5,-1150 51.5,-1108 51.5,-1108 51.5,-1102 57.5,-1096 63.5,-1096 63.5,-1096 213.5,-1096 213.5,-1096 219.5,-1096 225.5,-1102 225.5,-1108 225.5,-1108 225.5,-1150 225.5,-1150 225.5,-1156 219.5,-1162 213.5,-1162"/>
<text text-anchor="start" x="89.5" y="-1142.4" font-family="Times,serif" font-weight="bold" font-size="14.00" fill="#000000">17592186045417</text>
<text text-anchor="start" x="103.3166" y="-1128.4" font-family="Times,serif" font-size="14.00" fill="#000000">:db.part/user</text>
<text text-anchor="start" x="63.1115" y="-1107.4" font-family="Times,serif" font-size="14.00" fill="#000000">:db/ident</text>
<polygon fill="#63a660" stroke="transparent" points="116.5,-1102 116.5,-1122 215.5,-1122 215.5,-1102 116.5,-1102"/>
<text text-anchor="start" x="118.3888" y="-1107.4" font-family="Times,serif" font-size="14.00" fill="#000000">:account.tier/free</text>
</g>
<!-- 17592186045418 -->
<g id="node9" class="node">
<title>17592186045418</title>
<path fill="#d0d2d9" stroke="transparent" d="M221.5,-1246C221.5,-1246 55.5,-1246 55.5,-1246 49.5,-1246 43.5,-1240 43.5,-1234 43.5,-1234 43.5,-1192 43.5,-1192 43.5,-1186 49.5,-1180 55.5,-1180 55.5,-1180 221.5,-1180 221.5,-1180 227.5,-1180 233.5,-1186 233.5,-1192 233.5,-1192 233.5,-1234 233.5,-1234 233.5,-1240 227.5,-1246 221.5,-1246"/>
<text text-anchor="start" x="89.5" y="-1226.4" font-family="Times,serif" font-weight="bold" font-size="14.00" fill="#000000">17592186045418</text>
<text text-anchor="start" x="103.3166" y="-1212.4" font-family="Times,serif" font-size="14.00" fill="#000000">:db.part/user</text>
<text text-anchor="start" x="55.1115" y="-1191.4" font-family="Times,serif" font-size="14.00" fill="#000000">:db/ident</text>
<polygon fill="#63a660" stroke="transparent" points="108.5,-1186 108.5,-1206 223.5,-1206 223.5,-1186 108.5,-1186"/>
<text text-anchor="start" x="110.2191" y="-1191.4" font-family="Times,serif" font-size="14.00" fill="#000000">:account.tier/bronze</text>
</g>
<!-- 17592186045419 -->
<g id="node10" class="node">
<title>17592186045419</title>
<path fill="#d0d2d9" stroke="transparent" d="M218,-1330C218,-1330 59,-1330 59,-1330 53,-1330 47,-1324 47,-1318 47,-1318 47,-1276 47,-1276 47,-1270 53,-1264 59,-1264 59,-1264 218,-1264 218,-1264 224,-1264 230,-1270 230,-1276 230,-1276 230,-1318 230,-1318 230,-1324 224,-1330 218,-1330"/>
<text text-anchor="start" x="90" y="-1310.4" font-family="Times,serif" font-weight="bold" font-size="14.00" fill="#000000">17592186045419</text>
<text text-anchor="start" x="103.8166" y="-1296.4" font-family="Times,serif" font-size="14.00" fill="#000000">:db.part/user</text>
<text text-anchor="start" x="59.1115" y="-1275.4" font-family="Times,serif" font-size="14.00" fill="#000000">:db/ident</text>
<polygon fill="#63a660" stroke="transparent" points="112.5,-1270 112.5,-1290 220.5,-1290 220.5,-1270 112.5,-1270"/>
<text text-anchor="start" x="114.2135" y="-1275.4" font-family="Times,serif" font-size="14.00" fill="#000000">:account.tier/silver</text>
</g>
<!-- 17592186045420 -->
<g id="node11" class="node">
<title>17592186045420</title>
<path fill="#d0d2d9" stroke="transparent" d="M215,-1414C215,-1414 62,-1414 62,-1414 56,-1414 50,-1408 50,-1402 50,-1402 50,-1360 50,-1360 50,-1354 56,-1348 62,-1348 62,-1348 215,-1348 215,-1348 221,-1348 227,-1354 227,-1360 227,-1360 227,-1402 227,-1402 227,-1408 221,-1414 215,-1414"/>
<text text-anchor="start" x="90" y="-1394.4" font-family="Times,serif" font-weight="bold" font-size="14.00" fill="#000000">17592186045420</text>
<text text-anchor="start" x="103.8166" y="-1380.4" font-family="Times,serif" font-size="14.00" fill="#000000">:db.part/user</text>
<text text-anchor="start" x="62.1115" y="-1359.4" font-family="Times,serif" font-size="14.00" fill="#000000">:db/ident</text>
<polygon fill="#63a660" stroke="transparent" points="115.5,-1354 115.5,-1374 217.5,-1374 217.5,-1354 115.5,-1354"/>
<text text-anchor="start" x="117.3187" y="-1359.4" font-family="Times,serif" font-size="14.00" fill="#000000">:account.tier/gold</text>
</g>
<!-- 17592186045421 -->
<g id="node12" class="node">
<title>17592186045421</title>
<path fill="#d0d2d9" stroke="transparent" d="M230,-1498C230,-1498 47,-1498 47,-1498 41,-1498 35,-1492 35,-1486 35,-1486 35,-1444 35,-1444 35,-1438 41,-1432 47,-1432 47,-1432 230,-1432 230,-1432 236,-1432 242,-1438 242,-1444 242,-1444 242,-1486 242,-1486 242,-1492 236,-1498 230,-1498"/>
<text text-anchor="start" x="90" y="-1478.4" font-family="Times,serif" font-weight="bold" font-size="14.00" fill="#000000">17592186045421</text>
<text text-anchor="start" x="103.8166" y="-1464.4" font-family="Times,serif" font-size="14.00" fill="#000000">:db.part/user</text>
<text text-anchor="start" x="47.1115" y="-1443.4" font-family="Times,serif" font-size="14.00" fill="#000000">:db/ident</text>
<polygon fill="#63a660" stroke="transparent" points="100.5,-1438 100.5,-1458 232.5,-1458 232.5,-1438 100.5,-1438"/>
<text text-anchor="start" x="102.1686" y="-1443.4" font-family="Times,serif" font-size="14.00" fill="#000000">:account.tier/enterprise</text>
</g>
</g>
</svg>
