<?xml version="1.0" encoding="UTF-8" standalone="no"?>
<!DOCTYPE svg PUBLIC "-//W3C//DTD SVG 1.1//EN"
 "http://www.w3.org/Graphics/SVG/1.1/DTD/svg11.dtd">
<!-- Generated by graphviz version 2.40.1 (20161225.0304)
 -->
<!-- Title: Transaction Effects Pages: 1 -->
<svg width="766pt" height="663pt"
 viewBox="0.00 0.00 766.00 662.50" xmlns="http://www.w3.org/2000/svg" xmlns:xlink="http://www.w3.org/1999/xlink">
<g id="graph0" class="graph" transform="scale(1 1) rotate(0) translate(4 658.5)">
<title>Transaction Effects</title>
<polygon fill="#ffffff" stroke="transparent" points="-4,4 -4,-658.5 762,-658.5 762,4 -4,4"/>
<!-- 13194139534318 -->
<g id="node1" class="node">
<title>13194139534318</title>
<path fill="#d0d2d9" stroke="transparent" d="M288,-90.5C288,-90.5 35,-90.5 35,-90.5 29,-90.5 23,-84.5 23,-78.5 23,-78.5 23,-36.5 23,-36.5 23,-30.5 29,-24.5 35,-24.5 35,-24.5 288,-24.5 288,-24.5 294,-24.5 300,-30.5 300,-36.5 300,-36.5 300,-78.5 300,-78.5 300,-84.5 294,-90.5 288,-90.5"/>
<text text-anchor="start" x="113" y="-70.9" font-family="Times,serif" font-weight="bold" font-size="14.00" fill="#000000">13194139534318</text>
<text text-anchor="start" x="133.0312" y="-56.9" font-family="Times,serif" font-size="14.00" fill="#000000">:db.part/tx</text>
<text text-anchor="start" x="35.1136" y="-35.9" font-family="Times,serif" font-size="14.00" fill="#000000">:db/txInstant</text>
<polygon fill="#63a660" stroke="transparent" points="109.5,-30.5 109.5,-50.5 290.5,-50.5 290.5,-30.5 109.5,-30.5"/>
<text text-anchor="start" x="111.1413" y="-35.9" font-family="Times,serif" font-size="14.00" fill="#000000">Fri Aug 25 11:38:13 CDT 2017</text>
</g>
<!-- 17592186045423 -->
<g id="node2" class="node">
<title>17592186045423</title>
<path fill="#d0d2d9" stroke="transparent" d="M276.5,-470.5C276.5,-470.5 46.5,-470.5 46.5,-470.5 40.5,-470.5 34.5,-464.5 34.5,-458.5 34.5,-458.5 34.5,-316.5 34.5,-316.5 34.5,-310.5 40.5,-304.5 46.5,-304.5 46.5,-304.5 276.5,-304.5 276.5,-304.5 282.5,-304.5 288.5,-310.5 288.5,-316.5 288.5,-316.5 288.5,-458.5 288.5,-458.5 288.5,-464.5 282.5,-470.5 276.5,-470.5"/>
<text text-anchor="start" x="112.5" y="-450.9" font-family="Times,serif" font-weight="bold" font-size="14.00" fill="#000000">17592186045423</text>
<text text-anchor="start" x="126.3166" y="-436.9" font-family="Times,serif" font-size="14.00" fill="#000000">:db.part/user</text>
<text text-anchor="start" x="49.6746" y="-407.8" font-family="Times,serif" font-size="14.00" fill="#000000">:user/tokens</text>
<polygon fill="#63a660" stroke="transparent" points="124.5,-393.5 124.5,-430.5 278.5,-430.5 278.5,-393.5 124.5,-393.5"/>
<text text-anchor="start" x="156.2814" y="-415.9" font-family="Times,serif" font-size="14.00" fill="#000000">#{101 102 100}</text>
<text text-anchor="start" x="164.7626" y="-399.1" font-family="Times,serif" font-size="14.00" fill="#000000">asserted: 100</text>
<text text-anchor="start" x="48.1297" y="-376.9" font-family="Times,serif" font-size="14.00" fill="#000000">:user/active?</text>
<polygon fill="#63a660" stroke="transparent" points="124.5,-371.5 124.5,-391.5 278.5,-391.5 278.5,-371.5 124.5,-371.5"/>
<text text-anchor="start" x="190.6171" y="-376.9" font-family="Times,serif" font-size="14.00" fill="#000000">true</text>
<text text-anchor="start" x="52.7896" y="-354.9" font-family="Times,serif" font-size="14.00" fill="#000000">:user/name</text>
<polygon fill="#63a660" stroke="transparent" points="124.5,-349.5 124.5,-369.5 278.5,-369.5 278.5,-349.5 124.5,-349.5"/>
<text text-anchor="start" x="144.3261" y="-354.9" font-family="Times,serif" font-size="14.00" fill="#000000">alice@example.com</text>
<text text-anchor="start" x="46.1823" y="-324.8" font-family="Times,serif" font-size="14.00" fill="#000000">:user/account</text>
<polygon fill="#63a660" stroke="transparent" points="124.5,-310.5 124.5,-347.5 278.5,-347.5 278.5,-310.5 124.5,-310.5"/>
<text text-anchor="start" x="142.2814" y="-332.9" font-family="Times,serif" font-size="14.00" fill="#000000">#{17592186045426}</text>
<text text-anchor="start" x="126.2626" y="-316.1" font-family="Times,serif" font-size="14.00" fill="#000000">asserted: 17592186045426</text>
</g>
<!-- 17592186045426 -->
<g id="node5" class="node">
<title>17592186045426</title>
<path fill="#d0d2d9" stroke="transparent" d="M596,-351C596,-351 371,-351 371,-351 365,-351 359,-345 359,-339 359,-339 359,-258 359,-258 359,-252 365,-246 371,-246 371,-246 596,-246 596,-246 602,-246 608,-252 608,-258 608,-258 608,-339 608,-339 608,-345 602,-351 596,-351"/>
<text text-anchor="start" x="435" y="-330.9" font-family="Times,serif" font-weight="bold" font-size="14.00" fill="#000000">17592186045426</text>
<text text-anchor="start" x="448.8166" y="-316.9" font-family="Times,serif" font-size="14.00" fill="#000000">:db.part/user</text>
<text text-anchor="start" x="371.014" y="-287.8" font-family="Times,serif" font-size="14.00" fill="#000000">:account/tier</text>
<polygon fill="#63a660" stroke="transparent" points="444.5,-273.5 444.5,-310.5 598.5,-310.5 598.5,-273.5 444.5,-273.5"/>
<text text-anchor="start" x="473.8888" y="-295.9" font-family="Times,serif" font-size="14.00" fill="#000000">:account.tier/free</text>
<text text-anchor="start" x="446.2626" y="-279.1" font-family="Times,serif" font-size="14.00" fill="#000000">asserted: 17592186045417</text>
<text text-anchor="start" x="374.8969" y="-256.9" font-family="Times,serif" font-size="14.00" fill="#000000">:account/id</text>
<polygon fill="#63a660" stroke="transparent" points="444.5,-251.5 444.5,-271.5 598.5,-271.5 598.5,-251.5 444.5,-251.5"/>
<text text-anchor="start" x="518" y="-256.9" font-family="Times,serif" font-size="14.00" fill="#000000">1</text>
</g>
<!-- 17592186045423&#45;&gt;17592186045426 -->
<g id="edge1" class="edge">
<title>17592186045423:68&#45;&gt;17592186045426:id</title>
<path fill="none" stroke="#000000" d="M278.5,-328.5C315.3108,-328.5 326.9939,-328.5 359.2895,-328.5"/>
<polygon fill="#000000" stroke="#000000" points="359.5,-332.0001 369.5,-328.5 359.5,-325.0001 359.5,-332.0001"/>
</g>
<!-- 17592186045424 -->
<g id="node3" class="node">
<title>17592186045424</title>
<path fill="#d0d2d9" stroke="transparent" d="M311,-236C311,-236 12,-236 12,-236 6,-236 0,-230 0,-224 0,-224 0,-121 0,-121 0,-115 6,-109 12,-109 12,-109 311,-109 311,-109 317,-109 323,-115 323,-121 323,-121 323,-224 323,-224 323,-230 317,-236 311,-236"/>
<text text-anchor="start" x="113" y="-215.9" font-family="Times,serif" font-weight="bold" font-size="14.00" fill="#000000">17592186045424</text>
<text text-anchor="start" x="126.8166" y="-201.9" font-family="Times,serif" font-size="14.00" fill="#000000">:db.part/user</text>
<text text-anchor="start" x="14.1297" y="-180.9" font-family="Times,serif" font-size="14.00" fill="#000000">:user/active?</text>
<polygon fill="#63a660" stroke="transparent" points="90.5,-175.5 90.5,-195.5 313.5,-195.5 313.5,-175.5 90.5,-175.5"/>
<text text-anchor="start" x="191.1171" y="-180.9" font-family="Times,serif" font-size="14.00" fill="#000000">true</text>
<text text-anchor="start" x="18.7896" y="-158.9" font-family="Times,serif" font-size="14.00" fill="#000000">:user/name</text>
<polygon fill="#63a660" stroke="transparent" points="90.5,-153.5 90.5,-173.5 313.5,-173.5 313.5,-153.5 90.5,-153.5"/>
<text text-anchor="start" x="166.5912" y="-158.9" font-family="Times,serif" font-size="14.00" fill="#000000">bob@fast.co</text>
<text text-anchor="start" x="12.1823" y="-128.8" font-family="Times,serif" font-size="14.00" fill="#000000">:user/account</text>
<polygon fill="#63a660" stroke="transparent" points="90.5,-114.5 90.5,-151.5 313.5,-151.5 313.5,-114.5 90.5,-114.5"/>
<text text-anchor="start" x="92.0314" y="-136.9" font-family="Times,serif" font-size="14.00" fill="#000000">#{17592186045428 17592186045429}</text>
<text text-anchor="start" x="126.7626" y="-120.1" font-family="Times,serif" font-size="14.00" fill="#000000">asserted: 17592186045429</text>
</g>
<!-- 17592186045428 -->
<g id="node7" class="node">
<title>17592186045428</title>
<path fill="#d0d2d9" stroke="transparent" d="M596,-228C596,-228 371,-228 371,-228 365,-228 359,-222 359,-216 359,-216 359,-135 359,-135 359,-129 365,-123 371,-123 371,-123 596,-123 596,-123 602,-123 608,-129 608,-135 608,-135 608,-216 608,-216 608,-222 602,-228 596,-228"/>
<text text-anchor="start" x="435" y="-207.9" font-family="Times,serif" font-weight="bold" font-size="14.00" fill="#000000">17592186045428</text>
<text text-anchor="start" x="448.8166" y="-193.9" font-family="Times,serif" font-size="14.00" fill="#000000">:db.part/user</text>
<text text-anchor="start" x="371.014" y="-164.8" font-family="Times,serif" font-size="14.00" fill="#000000">:account/tier</text>
<polygon fill="#63a660" stroke="transparent" points="444.5,-150.5 444.5,-187.5 598.5,-187.5 598.5,-150.5 444.5,-150.5"/>
<text text-anchor="start" x="473.8888" y="-172.9" font-family="Times,serif" font-size="14.00" fill="#000000">:account.tier/free</text>
<text text-anchor="start" x="446.2626" y="-156.1" font-family="Times,serif" font-size="14.00" fill="#000000">asserted: 17592186045417</text>
<text text-anchor="start" x="374.8969" y="-133.9" font-family="Times,serif" font-size="14.00" fill="#000000">:account/id</text>
<polygon fill="#63a660" stroke="transparent" points="444.5,-128.5 444.5,-148.5 598.5,-148.5 598.5,-128.5 444.5,-128.5"/>
<text text-anchor="start" x="518" y="-133.9" font-family="Times,serif" font-size="14.00" fill="#000000">3</text>
</g>
<!-- 17592186045424&#45;&gt;17592186045428 -->
<g id="edge2" class="edge">
<title>17592186045424:68&#45;&gt;17592186045428:id</title>
<path fill="none" stroke="#000000" d="M313.5,-132.5C350.5577,-132.5 332.8569,-192.4541 359.6474,-203.6955"/>
<polygon fill="#000000" stroke="#000000" points="359.033,-207.1411 369.5,-205.5 360.2942,-200.2556 359.033,-207.1411"/>
</g>
<!-- 17592186045429 -->
<g id="node8" class="node">
<title>17592186045429</title>
<path fill="#d0d2d9" stroke="transparent" d="M596,-105C596,-105 371,-105 371,-105 365,-105 359,-99 359,-93 359,-93 359,-12 359,-12 359,-6 365,0 371,0 371,0 596,0 596,0 602,0 608,-6 608,-12 608,-12 608,-93 608,-93 608,-99 602,-105 596,-105"/>
<text text-anchor="start" x="435" y="-84.9" font-family="Times,serif" font-weight="bold" font-size="14.00" fill="#000000">17592186045429</text>
<text text-anchor="start" x="448.8166" y="-70.9" font-family="Times,serif" font-size="14.00" fill="#000000">:db.part/user</text>
<text text-anchor="start" x="374.8969" y="-49.9" font-family="Times,serif" font-size="14.00" fill="#000000">:account/id</text>
<polygon fill="#63a660" stroke="transparent" points="444.5,-44.5 444.5,-64.5 598.5,-64.5 598.5,-44.5 444.5,-44.5"/>
<text text-anchor="start" x="518" y="-49.9" font-family="Times,serif" font-size="14.00" fill="#000000">4</text>
<text text-anchor="start" x="371.014" y="-19.8" font-family="Times,serif" font-size="14.00" fill="#000000">:account/tier</text>
<polygon fill="#63a660" stroke="transparent" points="444.5,-5.5 444.5,-42.5 598.5,-42.5 598.5,-5.5 444.5,-5.5"/>
<text text-anchor="start" x="469.2135" y="-27.9" font-family="Times,serif" font-size="14.00" fill="#000000">:account.tier/silver</text>
<text text-anchor="start" x="446.2626" y="-11.1" font-family="Times,serif" font-size="14.00" fill="#000000">asserted: 17592186045419</text>
</g>
<!-- 17592186045424&#45;&gt;17592186045429 -->
<g id="edge3" class="edge">
<title>17592186045424:68&#45;&gt;17592186045429:id</title>
<path fill="none" stroke="#000000" d="M313.5,-132.5C342.9558,-132.5 338.0438,-93.5321 359.4446,-84.399"/>
<polygon fill="#000000" stroke="#000000" points="360.3232,-87.795 369.5,-82.5 359.0242,-80.9166 360.3232,-87.795"/>
</g>
<!-- 17592186045425 -->
<g id="node4" class="node">
<title>17592186045425</title>
<path fill="#d0d2d9" stroke="transparent" d="M276.5,-654.5C276.5,-654.5 46.5,-654.5 46.5,-654.5 40.5,-654.5 34.5,-648.5 34.5,-642.5 34.5,-642.5 34.5,-500.5 34.5,-500.5 34.5,-494.5 40.5,-488.5 46.5,-488.5 46.5,-488.5 276.5,-488.5 276.5,-488.5 282.5,-488.5 288.5,-494.5 288.5,-500.5 288.5,-500.5 288.5,-642.5 288.5,-642.5 288.5,-648.5 282.5,-654.5 276.5,-654.5"/>
<text text-anchor="start" x="112.5" y="-634.9" font-family="Times,serif" font-weight="bold" font-size="14.00" fill="#000000">17592186045425</text>
<text text-anchor="start" x="126.3166" y="-620.9" font-family="Times,serif" font-size="14.00" fill="#000000">:db.part/user</text>
<text text-anchor="start" x="49.6746" y="-591.8" font-family="Times,serif" font-size="14.00" fill="#000000">:user/tokens</text>
<polygon fill="#63a660" stroke="transparent" points="124.5,-577.5 124.5,-614.5 278.5,-614.5 278.5,-577.5 124.5,-577.5"/>
<text text-anchor="start" x="180.7814" y="-599.9" font-family="Times,serif" font-size="14.00" fill="#000000">#{100}</text>
<text text-anchor="start" x="164.7626" y="-583.1" font-family="Times,serif" font-size="14.00" fill="#000000">asserted: 100</text>
<text text-anchor="start" x="48.1297" y="-560.9" font-family="Times,serif" font-size="14.00" fill="#000000">:user/active?</text>
<polygon fill="#63a660" stroke="transparent" points="124.5,-555.5 124.5,-575.5 278.5,-575.5 278.5,-555.5 124.5,-555.5"/>
<text text-anchor="start" x="188.2875" y="-560.9" font-family="Times,serif" font-size="14.00" fill="#000000">false</text>
<text text-anchor="start" x="46.1823" y="-530.8" font-family="Times,serif" font-size="14.00" fill="#000000">:user/account</text>
<polygon fill="#63a660" stroke="transparent" points="124.5,-516.5 124.5,-553.5 278.5,-553.5 278.5,-516.5 124.5,-516.5"/>
<text text-anchor="start" x="142.2814" y="-538.9" font-family="Times,serif" font-size="14.00" fill="#000000">#{17592186045427}</text>
<text text-anchor="start" x="126.2626" y="-522.1" font-family="Times,serif" font-size="14.00" fill="#000000">asserted: 17592186045427</text>
<text text-anchor="start" x="52.7896" y="-499.9" font-family="Times,serif" font-size="14.00" fill="#000000">:user/name</text>
<polygon fill="#63a660" stroke="transparent" points="124.5,-494.5 124.5,-514.5 278.5,-514.5 278.5,-494.5 124.5,-494.5"/>
<text text-anchor="start" x="155.2244" y="-499.9" font-family="Times,serif" font-size="14.00" fill="#000000">eve@attacker.zz</text>
</g>
<!-- 17592186045427 -->
<g id="node6" class="node">
<title>17592186045427</title>
<path fill="#d0d2d9" stroke="transparent" d="M596,-557C596,-557 371,-557 371,-557 365,-557 359,-551 359,-545 359,-545 359,-464 359,-464 359,-458 365,-452 371,-452 371,-452 596,-452 596,-452 602,-452 608,-458 608,-464 608,-464 608,-545 608,-545 608,-551 602,-557 596,-557"/>
<text text-anchor="start" x="435" y="-536.9" font-family="Times,serif" font-weight="bold" font-size="14.00" fill="#000000">17592186045427</text>
<text text-anchor="start" x="448.8166" y="-522.9" font-family="Times,serif" font-size="14.00" fill="#000000">:db.part/user</text>
<text text-anchor="start" x="374.8969" y="-501.9" font-family="Times,serif" font-size="14.00" fill="#000000">:account/id</text>
<polygon fill="#63a660" stroke="transparent" points="444.5,-496.5 444.5,-516.5 598.5,-516.5 598.5,-496.5 444.5,-496.5"/>
<text text-anchor="start" x="518" y="-501.9" font-family="Times,serif" font-size="14.00" fill="#000000">2</text>
<text text-anchor="start" x="371.014" y="-471.8" font-family="Times,serif" font-size="14.00" fill="#000000">:account/tier</text>
<polygon fill="#63a660" stroke="transparent" points="444.5,-457.5 444.5,-494.5 598.5,-494.5 598.5,-457.5 444.5,-457.5"/>
<text text-anchor="start" x="457.1686" y="-479.9" font-family="Times,serif" font-size="14.00" fill="#000000">:account.tier/enterprise</text>
<text text-anchor="start" x="446.2626" y="-463.1" font-family="Times,serif" font-size="14.00" fill="#000000">asserted: 17592186045421</text>
</g>
<!-- 17592186045425&#45;&gt;17592186045427 -->
<g id="edge4" class="edge">
<title>17592186045425:68&#45;&gt;17592186045427:id</title>
<path fill="none" stroke="#000000" d="M278.5,-534.5C315.3108,-534.5 326.9939,-534.5 359.2895,-534.5"/>
<polygon fill="#000000" stroke="#000000" points="359.5,-538.0001 369.5,-534.5 359.5,-531.0001 359.5,-538.0001"/>
</g>
<!-- 17592186045417 -->
<g id="node9" class="node">
<title>17592186045417</title>
<path fill="#d0d2d9" stroke="transparent" d="M746,-247.5C746,-247.5 656,-247.5 656,-247.5 650,-247.5 644,-241.5 644,-235.5 644,-235.5 644,-223.5 644,-223.5 644,-217.5 650,-211.5 656,-211.5 656,-211.5 746,-211.5 746,-211.5 752,-211.5 758,-217.5 758,-223.5 758,-223.5 758,-235.5 758,-235.5 758,-241.5 752,-247.5 746,-247.5"/>
<text text-anchor="middle" x="701" y="-225.3" font-family="Times,serif" font-size="14.00" fill="#000000">17592186045417</text>
</g>
<!-- 17592186045426&#45;&gt;17592186045417 -->
<g id="edge5" class="edge">
<title>17592186045426:67&#45;&gt;17592186045417:id</title>
<path fill="none" stroke="#000000" d="M598.5,-291.5C628.4774,-291.5 657.1923,-271.8445 676.5628,-254.6675"/>
<polygon fill="#000000" stroke="#000000" points="679.0561,-257.1289 684.016,-247.7667 674.3004,-251.9924 679.0561,-257.1289"/>
</g>
<!-- 17592186045421 -->
<g id="node10" class="node">
<title>17592186045421</title>
<path fill="#d0d2d9" stroke="transparent" d="M746,-493.5C746,-493.5 656,-493.5 656,-493.5 650,-493.5 644,-487.5 644,-481.5 644,-481.5 644,-469.5 644,-469.5 644,-463.5 650,-457.5 656,-457.5 656,-457.5 746,-457.5 746,-457.5 752,-457.5 758,-463.5 758,-469.5 758,-469.5 758,-481.5 758,-481.5 758,-487.5 752,-493.5 746,-493.5"/>
<text text-anchor="middle" x="701" y="-471.3" font-family="Times,serif" font-size="14.00" fill="#000000">17592186045421</text>
</g>
<!-- 17592186045427&#45;&gt;17592186045421 -->
<g id="edge6" class="edge">
<title>17592186045427:67&#45;&gt;17592186045421:id</title>
<path fill="none" stroke="#000000" d="M598.5,-475.5C609.8548,-475.5 621.9172,-475.5 633.629,-475.5"/>
<polygon fill="#000000" stroke="#000000" points="633.8043,-479.0001 643.8043,-475.5 633.8043,-472.0001 633.8043,-479.0001"/>
</g>
<!-- 17592186045428&#45;&gt;17592186045417 -->
<g id="edge7" class="edge">
<title>17592186045428:67&#45;&gt;17592186045417:id</title>
<path fill="none" stroke="#000000" d="M598.5,-168.5C628.1666,-168.5 656.7294,-187.6034 676.133,-204.429"/>
<polygon fill="#000000" stroke="#000000" points="673.848,-207.0816 683.6105,-211.198 678.5458,-201.8921 673.848,-207.0816"/>
</g>
<!-- 17592186045419 -->
<g id="node11" class="node">
<title>17592186045419</title>
<path fill="#d0d2d9" stroke="transparent" d="M746,-41.5C746,-41.5 656,-41.5 656,-41.5 650,-41.5 644,-35.5 644,-29.5 644,-29.5 644,-17.5 644,-17.5 644,-11.5 650,-5.5 656,-5.5 656,-5.5 746,-5.5 746,-5.5 752,-5.5 758,-11.5 758,-17.5 758,-17.5 758,-29.5 758,-29.5 758,-35.5 752,-41.5 746,-41.5"/>
<text text-anchor="middle" x="701" y="-19.3" font-family="Times,serif" font-size="14.00" fill="#000000">17592186045419</text>
</g>
<!-- 17592186045429&#45;&gt;17592186045419 -->
<g id="edge8" class="edge">
<title>17592186045429:67&#45;&gt;17592186045419:id</title>
<path fill="none" stroke="#000000" d="M598.5,-23.5C609.8548,-23.5 621.9172,-23.5 633.629,-23.5"/>
<polygon fill="#000000" stroke="#000000" points="633.8043,-27.0001 643.8043,-23.5 633.8043,-20.0001 633.8043,-27.0001"/>
</g>
</g>
</svg>
